<?xml version="1.0" standalone="no"?>
<!DOCTYPE svg PUBLIC "-//W3C//DTD SVG 20010904//EN"
 "http://www.w3.org/TR/2001/REC-SVG-20010904/DTD/svg10.dtd">
<svg version="1.0" xmlns="http://www.w3.org/2000/svg"
 width="210.000000pt" height="210.000000pt" viewBox="0 0 210.000000 210.000000"
 preserveAspectRatio="xMidYMid meet">
<metadata>
Created by potrace 1.14, written by Peter Selinger 2001-2017
</metadata>
<g transform="translate(0.000000,210.000000) scale(0.100000,-0.100000)"
fill="#000000" stroke="none">
<path d="M836 1791 c-3 -5 -9 -56 -12 -113 -6 -93 -9 -105 -28 -114 -12 -5
-21 -18 -21 -31 0 -14 -15 -33 -41 -51 -115 -83 -165 -209 -165 -414 1 -198
57 -378 149 -474 l21 -22 -39 -41 c-22 -23 -42 -41 -45 -41 -4 0 -31 -12 -61
-26 -50 -24 -57 -25 -78 -11 -60 40 -193 37 -284 -5 -106 -50 -182 -171 -182
-291 0 -119 -123 -106 1000 -107 l980 0 0 199 0 200 -52 24 c-144 68 -285 56
-401 -36 -21 -16 -39 -28 -41 -26 -1 2 -8 19 -16 37 -17 43 -51 69 -116 88
-30 9 -67 28 -83 44 -16 16 -49 34 -74 41 l-46 11 24 37 c44 71 55 123 55 264
0 254 -29 398 -100 505 -31 46 -53 67 -92 86 -29 14 -59 26 -69 26 -9 0 -22 7
-29 15 -7 8 -20 15 -30 15 -12 0 -24 18 -39 63 -52 146 -68 175 -85 148z m53
-134 c29 -76 29 -77 9 -88 -28 -15 -70 -3 -64 19 2 9 7 48 11 85 4 38 8 67 10
65 2 -2 17 -38 34 -81z m140 -386 c23 -15 16 -63 -13 -88 -33 -28 -60 -29 -86
-3 -19 19 -28 79 -13 93 9 10 96 8 112 -2z m-209 -31 c22 -41 -13 -90 -64 -90
-41 0 -56 15 -56 56 0 26 5 34 28 42 46 17 80 14 92 -8z"/>
<path d="M962 1228 c2 -13 8 -23 13 -23 6 0 11 10 13 23 2 15 -2 22 -13 22
-11 0 -15 -7 -13 -22z"/>
<path d="M753 1215 c-7 -20 2 -29 21 -22 9 4 13 13 10 22 -8 19 -23 19 -31 0z"/>
</g>
</svg>
